<svg width="32" height="32" viewBox="0 0 32 32" fill="none" xmlns="http://www.w3.org/2000/svg">
<g clip-path="url(#clip0_2001_2301)">
<path d="M16.6641 0C23.8974 1.01253e-10 27.5138 -0.000472089 29.7578 2.24219C32.0005 4.48618 32 8.10265 32 15.3359V16.6641C32 23.8974 32.0005 27.5138 29.7578 29.7578C27.5138 32.0005 23.8974 32 16.6641 32H15.3359C8.10265 32 4.48618 32.0005 2.24219 29.7578C-0.000472089 27.5138 1.01254e-10 23.8974 0 16.6641V15.3359C1.01805e-10 8.10265 -0.000472802 4.48618 2.24219 2.24219C4.48618 -0.000472801 8.10265 1.01806e-10 15.3359 0H16.6641ZM5.33301 9.33301C5.51706 18.4941 9.93449 23.9999 17.6787 24H18.1182V18.7588C20.9638 19.0525 23.1159 21.2106 23.9795 24H28C26.8957 19.8305 23.9929 17.5254 22.1807 16.6445C23.9929 15.5581 26.5416 12.9153 27.1504 9.33301H23.498C22.7052 12.2398 20.355 14.8831 18.1182 15.1328V9.33301H14.4648V19.4932C12.1996 18.9058 9.34031 16.0569 9.21289 9.33301H5.33301Z" fill="#EEEEEE"/>
</g>
<defs>
<clipPath id="clip0_2001_2301">
<rect width="32" height="32" fill="white"/>
</clipPath>
</defs>
</svg>
