<svg width="32" height="32" viewBox="0 0 32 32" fill="none" xmlns="http://www.w3.org/2000/svg">
<g clip-path="url(#clip0_2001_2296)">
<path d="M15.3359 0.0105698H16.6641C23.8974 0.0105698 27.5138 0.0103601 29.7578 2.25569C32.0002 4.50235 32 8.12264 32 15.3621V16.6463C32 23.8871 32.0001 27.5074 29.7578 29.7528C27.9312 31.5807 25.1973 31.9225 20.3428 31.9852C18.0001 31.9852 17.5153 31.9998 15.3359 31.9998C8.10274 31.9998 4.48619 32 2.24219 29.7547C-0.000375637 27.5094 -6.05238e-09 23.8871 0 16.6473V15.3172C0 8.07775 2.56453e-05 4.45614 2.24219 2.21077C4.48618 -0.0345618 8.10264 -0.0347632 15.3359 0.0105698ZM24.0059 8.00373C23.3372 8.01569 22.3107 8.37227 17.374 10.4256C15.6448 11.1449 12.1891 12.6336 7.00684 14.8914C6.16533 15.2261 5.72476 15.5537 5.68457 15.8739C5.60752 16.4885 6.49214 16.6799 7.60547 17.0418C8.51317 17.3369 9.73439 17.6824 10.3691 17.6961C10.9449 17.7085 11.5875 17.4704 12.2969 16.9832C17.139 13.7147 19.639 12.0628 19.7959 12.0272C19.9066 12.0021 20.0602 11.971 20.1641 12.0633C20.2673 12.1556 20.2571 12.3295 20.2461 12.3768C20.1581 12.7521 15.6094 16.89 15.3477 17.1619C14.3474 18.2007 13.2099 18.8365 14.9648 19.993C16.4836 20.9938 17.368 21.6324 18.9326 22.658C19.9324 23.3135 20.7167 24.0909 21.749 23.9959C22.2239 23.952 22.7147 23.5052 22.9639 22.1737C23.5528 19.0254 24.7099 12.2037 24.9775 9.39241C25.001 9.14621 24.9719 8.83065 24.9482 8.69221C24.9246 8.55392 24.8749 8.35668 24.6953 8.21076C24.4823 8.03793 24.1529 8.00127 24.0059 8.00373Z" fill="#EEEEEE"/>
</g>
<defs>
<clipPath id="clip0_2001_2296">
<rect width="32" height="32" fill="white"/>
</clipPath>
</defs>
</svg>
