<svg width="102" height="40" viewBox="0 0 102 40" fill="none" xmlns="http://www.w3.org/2000/svg">
<path d="M14.3328 25.2105C14.5217 25.542 14.6934 25.7664 14.8914 26.0979C14.9552 26.1901 15.0097 26.2883 15.054 26.3913C14.7479 26.929 14.1975 27.5475 13.6752 27.4131C13.4227 27.6756 13.1166 27.6492 12.8369 27.5947L12.6207 27.6756C12.6389 27.0035 12.945 26.4475 13.152 25.7754C13.4136 25.6165 13.5308 25.5256 13.8278 25.4348C14.0531 25.3812 14.1076 25.3095 14.3328 25.2105Z" fill="white"/>
<path d="M14.252 25.0488C14.144 25.0579 14.0713 25.067 14.0358 25.067C13.8059 25.0869 13.5772 25.1199 13.351 25.166L13.4318 24.9416L14.1794 24.9062L14.252 25.0488Z" fill="white"/>
<path d="M13.5544 24.5538C13.6661 24.5629 13.9004 24.571 14.0085 24.571L14.1439 24.8435C13.9768 24.8435 13.6298 24.8608 13.4464 24.8581L13.5544 24.5538Z" fill="white"/>
<path d="M12.7378 26.077C12.5035 26.7219 12.4045 27.2959 11.9267 27.8781C11.7106 27.9326 11.3945 27.9499 11.2055 27.9771C10.9713 27.9326 11.1964 27.7083 11.3045 27.6547C11.4565 27.5603 11.5883 27.4369 11.6924 27.2914C12.0076 27.166 11.8277 27.1924 11.9803 26.9326C12.4045 26.6719 12.2328 26.5011 12.5662 26.206C12.6295 26.1717 12.6873 26.1282 12.7378 26.077Z" fill="white"/>
<path fill-rule="evenodd" clip-rule="evenodd" d="M18.3301 26.3737C18.3719 26.3659 18.4149 26.3666 18.4565 26.3758C18.4741 26.3798 18.4904 26.3882 18.504 26.4001C18.5176 26.412 18.528 26.4271 18.5343 26.444C18.5406 26.461 18.5426 26.4792 18.5401 26.4971C18.5376 26.515 18.5308 26.532 18.5201 26.5466C18.4525 26.5731 18.3908 26.6127 18.3384 26.6629C18.2576 26.7619 18.312 26.8781 18.2575 26.9853C18.1149 27.1288 17.9333 27.0152 17.9333 26.8336C17.897 26.7073 18.0777 26.4485 18.1413 26.6093C18.3302 26.7073 18.52 26.3758 18.213 26.4212C18.2484 26.3977 18.2883 26.3815 18.3301 26.3737ZM18.1413 26.6447C18.1322 26.6719 18.0786 26.6538 18.0786 26.6901C18.0801 26.7092 18.0863 26.7276 18.0968 26.7437C18.2221 26.7791 18.1776 26.7073 18.1413 26.6447Z" fill="white"/>
<path d="M18.0459 25.2732C18.1449 25.345 18.1722 25.532 18.1994 25.6228C18.2085 25.157 18.3347 25.847 18.253 25.9462C18.1507 26.0568 18.0392 26.1587 17.9197 26.2505C17.8924 26.2668 17.8479 26.3313 17.8025 26.3758C17.8439 26.0006 17.9255 25.631 18.0459 25.2732Z" fill="white"/>
<path d="M14.7289 25.1569C14.8767 25.1387 15.0266 25.1476 15.1712 25.1833C15.3159 25.2167 15.4641 25.2319 15.6126 25.2287L15.6035 25.9008C15.5045 25.9726 15.4055 26.0443 15.3146 26.116C15.1 25.8085 14.9044 25.4882 14.7289 25.1569Z" fill="white"/>
<path d="M12.9986 25.2287C12.0794 25.3358 10.3982 25.928 9.94404 25.3095C10.4572 25.1033 11.746 25.0852 12.539 24.9862C12.7197 24.978 12.8551 24.9689 13.0803 24.9562L12.9986 25.2287Z" fill="white"/>
<path d="M14.8914 24.601C15.0722 24.6101 15.5045 24.6192 15.6843 24.6283C15.6762 24.6909 15.6489 24.879 15.6489 24.9416C15.3173 24.9403 14.9859 24.9612 14.6571 25.0043L14.5853 24.8789C15.8469 24.8163 15.6671 24.7627 14.5581 24.8253L14.4137 24.5828L14.8914 24.601Z" fill="white"/>
<path d="M10.5116 24.8926C8.99758 24.3413 11.7106 24.5474 12.3137 24.5293C12.5481 24.5293 12.8996 24.541 13.1975 24.561L13.0985 24.8926C12.2601 24.9107 11.2146 24.9734 10.5116 24.8926Z" fill="white"/>
<path d="M17.8297 25.0851C17.7618 25.2662 17.7075 25.452 17.6671 25.641C17.6317 25.82 17.5591 26.1252 17.5246 26.2877C17.4701 26.2466 17.4085 26.2158 17.3429 26.1969C17.5261 25.834 17.6857 25.4596 17.8207 25.0761L17.8297 25.0851Z" fill="white"/>
<path d="M16.0095 25.7755L15.955 25.7845C15.9369 25.7845 15.8924 25.7936 15.8833 25.7828C15.8833 25.7464 15.8923 25.6483 15.8923 25.6119C15.9104 25.6182 15.9298 25.6198 15.9487 25.6166C15.9675 25.6135 15.9854 25.6057 16.0005 25.5938L16.0095 25.7755Z" fill="white"/>
<path fill-rule="evenodd" clip-rule="evenodd" d="M11.9449 4.13559C13.1611 2.6569 15.5499 2.82487 16.6217 4.36896C17.4873 5.58787 17.5236 7.10291 17.5954 8.59976C17.7934 11.5671 16.46 15.7888 18.6772 18.1831C20.3348 19.877 22.0914 21.1405 23.4538 23.2295C25.3639 26.1161 25.5538 27.6665 24.8507 30.9209C24.7963 31.7002 24.8862 32.4986 25.1841 32.9291C25.6346 33.5922 25.5356 33.7711 25.571 34.5695C25.7245 36.9065 27.2477 38.2898 29.4104 39.1772C31.5829 40.3961 27.6083 39.8048 27.0424 39.645C26.4657 39.5015 26.1323 39.941 25.789 39.9856C24.6001 40.1164 24.9515 39.3498 23.0768 39.7131C21.9052 39.9374 21.4819 39.9592 21.4637 39.7848C21.4456 39.6105 21.67 39.5795 22.6618 39.2471C23.6537 38.9147 25.2113 38.2698 25.4375 37.5078C25.6637 36.7458 25.2667 35.5086 24.7353 35.1326C23.5183 34.3252 24.5364 33.3869 23.4729 32.4786C22.9688 32.0572 22.3375 31.86 21.6617 32.049C20.689 32.425 20.4092 33.3215 19.4355 33.9936C19.0629 34.2822 18.6501 34.5147 18.2102 34.6839C15.4273 35.7057 12.0475 34.5768 10.2173 32.3533C10.1274 32.2461 9.58701 31.6811 9.07292 32.0935C8.53249 32.5386 8.74047 32.7657 8.64964 33.4469C8.20456 34.8365 6.05922 35.4642 7.01473 37.5614C6.96019 37.7584 6.20363 37.4406 6.0683 37.8039C5.68957 38.2608 7.8348 39.4978 7.19461 39.8384C6.91577 40.0083 6.53698 39.7313 5.51881 39.7222C4.50063 39.7131 4.23901 39.8112 3.4906 39.8829C2.21991 40.0355 2.89564 38.7803 0.778424 39.0582C-0.240587 39.1299 -0.00636132 38.8711 0.101734 38.754C0.20982 38.6368 0.895625 38.5478 2.40065 38.3589C5.45701 38.2163 6.94293 34.5677 7.54604 32.1562C8.68231 28.4359 4.18451 28.1915 6.73497 22.1968C8.47433 18.0469 14.0266 15.4919 13.3327 10.4445C12.8641 8.64523 11.0884 10.0812 9.86217 10.6262C8.88037 11.1048 8.78134 10.9758 8.02387 10.8323C7.26636 10.6888 7.24003 10.4936 7.3572 10.3119C7.4562 10.0967 9.48431 8.88683 10.0429 8.17019C10.9076 7.0421 11.0167 5.08566 11.9449 4.13559ZM13.7579 23.8944C13.6952 23.701 13.4155 24.737 13.3882 24.7908C13.1002 25.4993 12.8205 26.4767 12.5771 27.1842C12.5326 27.2814 12.5589 27.6493 12.4327 27.7292C11.7824 28.3559 10.9258 29.1734 10.2591 29.8001C11.6197 32.2297 14.856 33.2961 17.4064 32.1489C17.439 32.1415 17.4682 32.1232 17.4891 32.0971C17.3447 32.0163 17.1912 31.9355 17.2094 31.7829C17.1912 31.7293 17.0386 31.6848 17.0386 31.613C16.9841 31.4205 16.7498 31.2279 16.6417 31.0571C16.678 30.5821 16.2002 29.3986 15.9568 28.7174C15.9477 28.7065 15.6144 27.6683 15.5608 27.5257C15.5527 27.49 15.5525 27.453 15.5602 27.4172C15.5678 27.3815 15.5833 27.3478 15.6053 27.3186L15.6507 27.1751L15.6689 26.602C15.2175 26.9699 15.2002 26.5929 15.0558 26.1987C14.5871 25.4094 14.1366 24.7191 13.7579 23.8944ZM16.1357 26.374C16.0095 26.4294 15.9014 26.484 15.766 26.5557C15.667 27.9445 16.1176 28.9399 16.6217 30.3296C16.7123 30.5877 16.7875 30.851 16.8469 31.118C16.8742 31.2433 17.1085 31.3424 17.1721 31.4677C17.2584 31.6421 17.5409 31.871 17.7125 32.0054C18.3696 31.6754 18.957 31.2221 19.4428 30.6702C19.6931 30.3775 19.9217 30.0669 20.1268 29.741C19.6309 29.7773 19.2621 29.3014 18.9551 28.9526C18.7296 28.7331 18.4919 28.5266 18.243 28.3341C17.2223 27.3152 17.2066 27.8171 17.5851 26.5183C17.4454 26.6096 17.3105 26.7082 17.1811 26.8136C17.0812 26.8945 16.9822 27.0553 16.856 27.1007C16.5681 27.1179 16.8297 26.7055 16.8923 26.6256C16.9287 26.5539 16.9377 26.5175 16.9913 26.3831C16.8548 26.4916 16.7309 26.615 16.6217 26.7509C16.4873 26.8763 16.3428 27.226 16.153 27.1007C16.1358 26.8854 16.1621 26.6465 16.1357 26.374ZM20.6399 25.4439C19.8824 22.5719 16.7107 20.7281 13.835 21.482C10.3209 22.2077 8.35538 26.6001 10.221 29.711C10.9149 29.028 11.4199 28.5811 12.1684 27.7564C12.4835 27.3977 12.4744 27.1106 12.6007 26.7882C12.8977 25.8917 13.2047 24.7355 13.5289 23.8572C13.637 23.6301 13.6998 23.3258 13.8442 23.6755C14.2148 24.3568 14.8506 25.4948 15.3047 26.2123C15.3059 26.214 15.3865 26.3196 15.3955 26.3286C15.4448 26.3393 15.4932 26.3541 15.5399 26.3731C15.5935 26.3658 15.6299 26.3196 15.7107 26.2751C15.7288 25.6919 15.7652 24.5447 15.8733 23.9798C15.8914 23.9079 15.8823 23.1197 16.1257 23.4775C16.1003 23.8898 16.2619 25.3513 16.3074 25.7909C16.3304 25.7819 16.3561 25.7819 16.3791 25.7909C16.3528 25.3604 16.2892 24.6428 16.2538 24.2223C16.2901 24.186 16.3174 24.1506 16.3446 24.1415C16.3719 24.1324 16.2811 24.0697 16.3719 24.0606C16.4529 24.0243 16.8396 24.1677 16.7053 23.9798C16.8742 24.0897 17.5409 24.5193 17.6136 24.7972L17.6226 24.8063C17.4019 25.1867 17.2062 25.5812 17.0367 25.987C16.856 25.7719 16.7034 26.1214 16.5045 26.0134C16.6044 26.2059 16.4954 26.2323 16.3428 26.2859C16.3783 26.5284 16.361 26.5375 16.3874 26.6447C16.4969 26.5378 16.5994 26.424 16.6944 26.3041C16.7661 26.215 16.7915 25.8654 16.9731 26.0534C16.9779 26.0812 16.9908 26.1069 17.01 26.1275C17.0291 26.1482 17.0539 26.1629 17.0813 26.1697C17.3974 25.4358 17.7843 24.6819 18.1176 23.9825C18.1721 23.7137 18.3792 23.4984 18.361 23.9108C18.1267 24.8163 17.7842 25.7219 17.658 26.5911C17.5953 26.8064 17.5055 27.1469 17.5236 27.3713C17.5313 27.4158 17.5533 27.4567 17.5862 27.4876C17.8478 27.7519 17.8297 27.7474 18.2175 28.1152C18.866 28.7428 18.9115 28.8055 19.4428 29.3069C19.6463 29.5585 19.8752 29.5757 20.1913 29.5848C20.8398 28.384 21.0205 26.7882 20.6581 25.4439C20.3874 25.5956 19.8316 26.0806 19.4683 26.1342C19.2966 26.1696 18.9451 26.493 18.7834 26.5193C18.8824 26.7255 18.5038 26.9317 18.4764 27.0388C18.4801 27.0864 18.4676 27.1338 18.4409 27.1733C18.441 27.2005 18.4763 27.2097 18.4945 27.2097C18.7016 27.246 18.5845 27.6039 18.6481 27.7474C18.6845 27.9183 19.4138 29.1643 19.7026 29.4059C19.4774 29.2897 18.7383 28.1157 18.7198 28.0616C18.7198 28.0616 18.5491 27.7293 18.5127 27.6756C18.4592 27.628 18.4181 27.568 18.393 27.5009C18.3678 27.4338 18.3593 27.3616 18.3683 27.2905C18.3238 27.2278 18.2965 27.2633 18.2329 27.2633C18.143 27.2995 18.0078 27.1915 17.9542 27.1379C17.9178 27.1198 17.8905 26.9499 17.8996 26.9317C17.9359 27.1025 18.044 27.1651 18.2329 27.1024C18.3683 27.0216 18.3329 26.8245 18.4673 26.7164C18.5845 26.6274 18.6208 26.6637 18.6208 26.5729C18.6662 26.1433 18.0894 26.2777 17.9723 26.5012C17.9723 26.5012 17.9368 26.4997 17.9814 26.4212C18.0604 26.2687 18.1158 26.2686 18.2421 26.206C18.342 26.1878 18.3593 26.0716 18.4501 26.0443C18.5845 26.0353 18.6299 26.2151 18.7016 26.295C18.7123 26.3144 18.7156 26.337 18.7108 26.3586C18.7032 26.388 18.7331 26.4119 18.7486 26.4446C18.8605 26.3867 18.8964 26.2325 18.9559 26.1306C19.179 25.9108 19.4272 25.7182 19.6953 25.5566C19.9206 25.3595 19.9115 25.1624 20.1367 25.0189C20.0449 25.1305 19.9692 25.2543 19.9115 25.3867C19.7044 25.7355 19.3801 25.799 19.1003 26.0851C18.9259 26.1847 18.9694 26.4235 18.7517 26.451C18.7535 26.4557 18.7551 26.4606 18.7562 26.4658C18.9451 26.4212 19.144 26.2323 19.3147 26.1342C19.4662 26.097 19.614 26.0459 19.7562 25.9816C20.095 25.82 20.3511 25.5602 20.6399 25.4439ZM17.6042 26.4372C17.5954 26.464 17.5952 26.4908 17.5864 26.5167C17.6131 26.4984 17.639 26.464 17.6042 26.4372ZM17.6036 26.4358C17.6233 26.2431 18.1099 24.4838 17.8379 24.9671C17.6399 25.4058 17.4055 25.9889 17.2156 26.3922C17.2338 26.4548 17.3511 26.3386 17.3601 26.3295C17.4065 26.2932 17.5236 26.3296 17.451 26.3922C17.4781 26.3841 17.507 26.3839 17.5343 26.3918C17.5611 26.3996 17.5851 26.4148 17.6036 26.4358ZM15.9731 24.6374C15.8287 25.0407 15.8287 25.7219 15.766 26.2414C15.8762 26.1718 15.9906 26.109 16.1085 26.0534C16.064 25.5784 16.0186 25.0488 15.9731 24.6374Z" fill="white"/>
<path fill-rule="evenodd" clip-rule="evenodd" d="M98.0705 0.0836951C99.8389 -0.733722 97.8061 4.63055 96.7525 4.87215C96.3657 4.96025 93.4685 5.50076 89.6439 5.97336C90.3935 6.17249 91.05 6.46501 91 7.5C90.9399 8.72549 91.0401 10.9144 91.1576 12.4484C94.0668 11.5141 97.2682 10.1009 101.5 8C102.576 7.46684 100.295 13.6815 98.7625 14.0304C96.393 14.5695 93.8342 15.0018 91.4397 15.3413C92 21.6309 92.3168 24.1841 93.4145 29.5821C93.8142 31.5471 87.931 27.515 87.931 26C87.9305 24.8317 87.6569 19.8019 87.5523 15.836C86.6688 15.9364 85.8509 16.0217 85.1251 16.0928C84.5138 17.8689 83.9048 19.6602 83.527 20.828C83.2545 20.9188 81.8549 20.1831 82.0356 18.9942C82.0845 18.6726 82.4871 17.6384 83.0668 16.2803C82.2529 16.3484 81.783 16.3802 81.783 16.3802C81.783 16.3802 81.5476 16.2032 81.311 15.9596C80.6733 17.8127 80.2059 19.4451 80.2425 20.1713C80.2879 21.0723 77.4959 18.9151 77.6385 17.362C77.7238 16.4308 78.5089 14.6656 79.4826 12.7812C78.256 14.1521 75.1351 17.6773 74.9609 18.2494C74.7438 18.9624 72.8537 16.8379 73.0072 16.0359C73.0589 15.7659 73.3735 14.9082 73.7958 13.8837C72.4882 14.6761 70.8541 16.1232 69.3822 17.7289C68.9444 18.2067 66.1233 15.123 66.839 14.0958C67.5547 13.0685 69.7774 11.6035 70.4395 10.8968C70.6948 10.6242 69.0007 11.0382 66.8232 11.6494C66.1999 14.2712 65.6153 16.9744 65.3854 18.7744C68.2493 18.1945 69.6173 18.2703 71.0162 18.2703C72.197 18.3611 74.8418 21.3684 73.6503 21.6309C67.7064 19.0766 46.396 26.6019 42.6251 27.9708C43.7603 29.8766 47.9786 36.4952 52.8487 38.3616C53.5608 38.634 49.3772 40.2018 48.1682 39.8784C44.2147 38.8216 41.0887 31.8332 40.2117 29.0897C39.5645 29.3896 38.9196 29.6827 38.2928 29.9624C37.2507 33.2499 36.4683 36.8836 36.9764 39.486C36.9886 39.5454 36.9874 39.6069 36.9731 39.6659C36.9588 39.7248 36.9315 39.7799 36.8934 39.8271C36.8553 39.8743 36.8073 39.9125 36.7527 39.939C36.6981 39.9654 36.6382 39.9795 36.5776 39.9801C34.2714 39.9983 31.7056 40.0809 32.0616 38.4442C32.5692 36.1093 33.2428 33.861 33.9831 31.7827C33.0623 32.14 32.4248 32.3523 32.2333 32.3523C31.246 32.3523 27.3377 28.3623 28.7818 28.4467C30.0889 28.5217 32.8108 27.9455 35.8439 27.1498C37.937 22.4724 39.9387 19.4869 39.9609 19.7862C39.9609 19.7862 41.8184 21.0088 41.2725 22.275C41.0044 22.8971 40.3769 24.2938 39.675 26.0844C41.1297 25.6606 42.5528 25.2276 43.8306 24.8298C46.955 23.5984 52.5361 21.9458 61.7908 19.6609C61.848 19.6464 62.8571 20.0969 64.2359 20.2367C64.2754 20.2406 63.9371 19.9806 63.6214 19.7332C62.8256 19.2348 62.0707 18.5288 62.2059 17.9978C62.3351 17.4898 63.0728 15.0094 63.7721 12.5353C63.1978 12.7063 62.6337 12.8761 62.1021 13.0372C61.5681 14.044 60.9598 15.1623 60.2748 16.3802C60.0631 16.757 59.0695 15.5373 59.1848 15.0177C59.2066 14.9195 59.3952 14.4601 59.6926 13.7757C59.0544 13.9733 58.6644 14.0958 58.6644 14.0958C57.9605 14.103 57.9315 13.6707 58.6644 13.2783C58.8054 13.2029 59.3828 12.9375 60.2322 12.5555C60.4699 12.0252 60.7364 11.4386 61.019 10.8258C60.1506 11.4099 56.3569 13.7946 56.351 14.0186C56.3447 14.2585 60.8015 17.8098 61.0741 18.0215C62.2121 18.9134 61.0741 18.8298 61.0741 18.8298C61.0574 18.8237 55.9153 16.9432 54.074 15.5222C53.6313 17.2047 53.2664 18.8766 53.3001 19.7162C53.3182 20.1776 50.5207 18.3257 50.7223 16.9115C50.8685 15.8864 52.9512 12.1236 54.0863 10.1301C53.2456 10.3 52.5807 10.4491 52.4181 10.4881C52.2043 10.5393 51.92 10.1903 51.6689 9.70558C50.2056 14.5634 49.0343 21.2574 49.4907 22.0261C50.1264 23.0969 46.4788 21.3058 46.0574 19.9715C45.8932 19.4518 46.4082 17.4255 47.0982 15.1453C46.1648 15.4925 45.1021 15.8885 44.0407 16.2858C42.9431 18.2882 42.1092 19.939 42.0519 20.3239C41.9519 20.9988 40.4787 19.2448 40.6421 18.1304C40.6588 18.0167 40.7524 17.7869 40.9082 17.4649C39.5142 17.9936 38.4306 18.4124 38.1099 18.5564C36.9645 19.0704 35.8746 15.9778 36.2933 15.5591C36.4891 15.3632 39.5037 14.7552 42.6687 14.2844C43.3669 13.0958 44.1815 11.7558 45.0057 10.4409C42.5976 12.2766 37.1657 14.6192 34.9474 14.7518C34.0015 18.1542 33.1944 21.9701 32.9136 25.7218C32.7982 27.2659 28.3404 24.5266 28.3939 22.3748C28.469 19.3665 31.1509 12.9859 33.7398 7.95057C29.3937 9.48827 24.8495 11.4791 22.5074 13.1094C20.9052 14.2238 22.0469 8.44807 25.2495 6.47256C27.0492 5.36247 31.9084 4.09664 36.2344 3.47895C37.3173 1.72845 38.1596 0.681085 38.4459 0.887492C38.4459 0.887492 39.7347 1.86378 39.157 3.16069C41.2649 3.01515 42.9645 3.11747 43.6777 3.59692C45.6309 4.90995 46.6305 6.5539 46.4036 8.25126C47.8706 5.99926 49.166 4.16894 49.6342 3.84581C50.9212 2.9575 54.2546 4.09922 53.449 5.29906C53.1529 5.74007 52.8476 6.37501 52.5436 7.14251C55.0654 6.8947 60.052 7.1545 60.5473 7.7478C61.0148 8.30793 61.3524 9.4035 61.3492 10.1135C62.7797 7.04479 64.4793 3.61899 64.9798 3.30084C65.8799 2.72863 69.008 3.03471 68.7037 4.20912C68.4728 5.10006 67.9435 7.09592 67.3686 9.4087C70.1446 8.20278 72.6314 7.14597 73.1353 6.99208C74.3397 6.62425 75.1126 9.37998 74.2933 9.92769C73.4741 10.4754 69.6875 13.9404 70.0562 13.6362C70.4121 13.3425 73.2966 12.6882 74.3613 12.5631C75.117 10.8631 75.9792 9.1787 76.3606 9.10482C76.3707 9.10519 78.3649 9.17994 77.931 10.1548C77.4959 11.1321 75.4786 15.2266 76.1698 14.8624C76.6882 14.5892 79.1822 12.205 80.2984 11.2503C81.3048 9.41167 82.3596 7.64162 82.9975 6.59124C82.3003 6.63173 81.6008 6.66343 80.9056 6.6842C80.8429 6.68404 81.3172 5.77362 80.8005 4.96289C80.8142 5.10015 80.8023 5.24732 80.7594 5.40444C80.3043 7.06841 77.2698 8.80863 76.4968 8.37358C76.4987 8.36723 76.7309 7.60247 77.0152 6.68562C73.7164 6.61081 70.955 6.18956 70.6402 5.11741C70.6506 5.11648 73.662 4.84625 77.7634 4.33366C77.8597 4.04516 77.9395 3.81792 77.991 3.69138C78.1193 3.3763 79.3769 3.48008 80.1672 4.02072C86.487 3.16368 94.2891 1.82592 98.0705 0.0836951ZM87.931 6.17249C86.771 6.2988 85.5541 6.41345 84.3169 6.50423C84.5257 6.88006 84.6556 7.33221 84.4806 7.77228C84.2493 8.35372 82.9282 11.4986 81.8212 14.5251C82.3073 14.4461 83.0241 14.3592 83.9777 14.2041C85.3841 11.0683 87.1654 7.36971 87.931 6.17249ZM49.6905 7.37446C49.5465 6.9271 47.3604 10.4373 45.3632 13.9267C46.1442 13.8374 46.8846 13.7676 47.5386 13.7268C48.5477 10.5489 49.6905 7.37446 49.6905 7.37446ZM87.4769 13.4921C87.3956 11.4523 87.2866 10.0619 87.1419 10.2919C87.1419 10.2919 86.5928 11.8561 85.9014 13.848C86.3889 13.7468 86.9139 13.6295 87.4769 13.4921ZM58.7099 9.65884C58.6446 9.37104 57.0385 9.58382 55.4607 9.86701C55.5456 10.1454 55.5698 10.4677 55.4581 10.815C55.3284 11.2186 54.9917 12.2793 54.6216 13.5514C56.1075 12.3302 58.7994 10.0541 58.7099 9.65884ZM44.4207 5.98028C44.5138 5.05219 41.5263 5.53197 37.6515 6.67586C36.9766 8.39612 36.1664 10.6378 35.4035 13.1757C37.7339 11.7875 44.2386 7.79398 44.4207 5.98028ZM65.0706 7.02481C65.0692 7.0281 64.3981 8.5849 62.9943 11.3259C63.405 11.1444 63.8306 10.9567 64.2645 10.7659C64.8257 8.70957 65.2381 7.02354 65.0706 7.02481Z" fill="white"/>
<path d="M76.9591 19.8417C77.4042 18.7662 79.3969 21.8817 79.3969 21.8817C79.4581 22.3184 78.48 24.3435 77.4562 26.7683C82.2028 24.8298 85.7684 20.5738 85.9229 20.1877C85.9261 20.1985 86.7831 23.1687 86.2863 24.1841C84.831 25.655 82.9349 26.7578 81.0526 27.4549C83.3379 29.6974 89.9748 36.0482 93.361 37.5704C94.1302 37.9165 89.6987 40.2372 88.3926 39.7831C85.7305 38.8563 79.8104 30.7559 78.4009 28.1739C77.8457 28.2678 77.3134 28.3198 76.8182 28.3284C76.0672 30.2368 75.4075 32.2308 75.2605 33.8063C77.1446 34.0079 79.0016 34.3656 80.6867 34.9001C81.0363 35.0119 80.8738 35.9037 80.5051 35.8911C77.871 35.8003 71.1497 34.8919 59.4328 39.595C58.3293 40.0373 59.5237 37.6986 60.9769 36.0727C62.5625 34.3018 68.1237 33.3161 73.7795 33.6799C73.4038 33.0468 73.1066 32.4155 73.1161 32.1888C73.2351 29.3123 76.2525 21.5484 76.9591 19.8417Z" fill="white"/>
<path d="M57.2275 24.9189C57.6662 24.462 64.7981 22.3839 65.3794 22.5674C65.9607 22.7509 67.1505 24.6382 66.67 25.0379C65.8353 25.7309 63.66 27.5892 63.165 27.8863C62.6082 28.2224 62.3475 27.3268 62.5427 26.8317C62.8943 25.9425 64.3674 24.166 63.9443 24.2422C63.2885 24.3603 59.243 25.6719 59.5918 26.0588C59.9407 26.4458 64.7908 29.5648 65.2658 29.8736C66.0996 30.4186 65.0678 32.3178 64.6836 32.673C64.0559 33.2525 56.6361 36.8874 52.7451 36.4142C51.8504 36.306 49.716 32.94 50.7405 33.0899C51.3856 33.1838 52.2863 33.2238 53.282 33.2006C52.7773 32.7453 52.3119 32.2297 52.3409 32.0117C52.4317 31.3568 53.4226 29.1544 53.4255 29.148C53.8633 28.5031 49.2056 33.4731 48.6842 33.9028C48.1628 34.3324 46.299 32.1498 46.5043 31.3596C47.1392 28.9072 48.32 27.5448 49.5008 26.2732C49.5136 26.2703 53.1167 25.448 52.6798 26.1824C52.242 26.9181 49.9931 31.1379 50.399 30.7066C50.805 30.2751 54.0322 26.9108 54.4863 26.354C54.9405 25.7973 57.113 28.394 56.3937 29.0789C55.7679 29.6747 54.6499 31.4337 54.4894 33.1968C54.4992 33.7427 54.6504 34.7108 54.6706 34.5658C54.8523 33.1425 55.1312 33.0445 55.2638 33.0326C59.1694 32.6775 63.6818 31.7892 63.9743 31.3669C64.4003 30.7492 57.0404 28.7092 56.4945 27.4294C56.1603 26.6455 56.7888 25.3758 57.2275 24.9189Z" fill="white"/>
<path fill-rule="evenodd" clip-rule="evenodd" d="M69.314 22.0106C70.0233 21.6079 71.5657 22.5251 72.4941 23.26C73.1267 23.3832 74.2101 24.1653 74.2951 24.8445C74.5675 27.058 70.2596 31.999 69.5575 32.6376C68.8554 33.2761 66.6709 31.4722 66.2785 30.4622C65.6427 28.8173 67.7418 22.9035 69.314 22.0106ZM71.4957 23.5801C70.4185 23.4375 68.1033 30.7629 69.1188 30.8937C69.8964 30.9929 71.873 24.9969 72.0334 23.6907C71.8584 23.6388 71.6786 23.6015 71.4957 23.5801Z" fill="white"/>
</svg>
