<svg width="134" height="40" viewBox="0 0 134 40" fill="none" xmlns="http://www.w3.org/2000/svg">
<path d="M35.6585 9.39798L38.431 9.21661L38.3542 6.16201L35.86 6.11428L35.6297 6.40065L35.6585 9.39798ZM41.5872 12.6339L35.7544 13.0062L35.9463 18.3327H30.7754L30.6987 2.10512L40.5607 1.84739L42.7384 4.01425L42.9974 10.2762L41.5872 12.6339Z" fill="#E5E7EB"/>
<path d="M52.1591 11.3546L51.9768 9.24505L50.5569 6.23817L49.1947 9.18777L48.9549 11.536L52.1591 11.3546ZM57.5121 18.1702L52.7922 18.3802L52.5236 15.1442L48.7726 15.4592L48.6383 18.2466L44.1294 18.1702L44.8105 8.82504L48.0915 2.06674L52.7059 1.87582L56.5433 8.07093L57.5121 18.1702Z" fill="#E5E7EB"/>
<path d="M63.7862 9.45513L66.4628 9.24512V5.81824L63.7095 5.87552L63.7862 9.45513ZM65.0717 13.0061L64.1988 13.1875L64.4386 18.2276L59.3253 18.3039L59.1238 2.18136L66.9999 1.71362L70.962 2.36273L71.3554 11.1065L69.5998 11.9943L72.8232 16.5953L68.132 18.6857L65.0717 13.0061Z" fill="#E5E7EB"/>
<path d="M81.3133 11.3546L81.1309 9.24505L79.7111 6.23817L78.3105 9.18777L78.0707 11.536L81.3133 11.3546ZM86.6663 18.1702L81.9369 18.3802L81.6778 15.1442L77.9268 15.4592L77.7925 18.2466L73.2836 18.1702L73.9647 8.82504L77.2457 2.06674L81.86 1.87582L85.6974 8.07093L86.6663 18.1702Z" fill="#E5E7EB"/>
<path d="M98.658 1.96182L98.8882 6.19053L93.6599 13.6361C93.6599 13.6838 93.6599 13.7125 93.6599 13.7125L99.0994 13.2925V18.2276L87.7121 17.9889L87.6064 14.2279L93.3625 6.4769L87.6064 6.5819V2.24819L98.658 1.96182Z" fill="#E5E7EB"/>
<path d="M106.246 1.85695L106.342 17.9413L101.124 18.2754L100.941 2.06695L106.246 1.85695Z" fill="#E5E7EB"/>
<path d="M120.358 6.42923L116.214 6.37195L116.761 17.9412L111.619 18.1703L111.676 6.47695L107.896 6.61059L107.839 2.03824L120.147 1.78051L120.358 6.42923Z" fill="#E5E7EB"/>
<path d="M128.647 11.3546L128.465 9.24505L127.045 6.23817L125.683 9.18777L125.443 11.536L128.647 11.3546ZM134 18.1702L129.28 18.3802L129.011 15.1442L125.26 15.4592L125.126 18.2466L120.617 18.1702L121.298 8.82504L124.579 2.06674L129.194 1.87582L133.031 8.07093L134 18.1702Z" fill="#E5E7EB"/>
<path d="M50.8736 22.1509L50.9791 28.5751L53.6556 26.6373L53.7899 22.0936L59.1143 22.4373L58.6921 27.9451L55.5455 29.8733L58.7785 31.2861L59.8721 38.1303L54.3655 38.4453L54.0777 33.9207L51.1901 31.9924L51.3724 38.1494L46.1536 38.3403L45.9426 22.2273L50.8736 22.1509Z" fill="#E5E7EB"/>
<path d="M74.2334 22.0936L74.9433 36.1734L72.9191 37.9489L62.7405 38.283L61.762 37.3953L61.8483 22.5136L66.4627 22.4373L66.6738 33.3288L69.8492 32.9088L69.6669 22.1509L74.2334 22.0936Z" fill="#E5E7EB"/>
<path d="M86.9541 21.9123L86.935 26.2747L82.2054 26.3033L82.0232 27.4201L87.3763 29.8543L86.9541 37.7103L77.0154 38.6553L76.5358 33.4339L82.263 33.7393L82.3397 32.2502L76.7756 29.0429L77.2457 22.5423L81.4667 22.0937L86.9541 21.9123Z" fill="#E5E7EB"/>
<path d="M97.4205 33.682L97.0847 26.7137L94.2067 26.5514L94.0725 33.8157L97.4205 33.682ZM102.409 35.0184L101.853 37.968L94.1108 38.283L89.4964 37.758L89.8897 22.275L101.171 22.0936L102.409 35.0184Z" fill="#E5E7EB"/>
<path d="M109.182 22.1509L109.287 28.5751L111.964 26.6373L112.089 22.0936L117.423 22.4373L117.001 27.9451L113.854 29.8733L117.077 31.2861L118.18 38.1303L112.674 38.4453L112.377 33.9207L109.499 31.9924L109.681 38.1494L104.462 38.3403L104.251 22.2273L109.182 22.1509Z" fill="#E5E7EB"/>
<path d="M14.4469 23.6826L14.3088 23.4111C14.1984 23.4111 13.959 23.4021 13.8486 23.393L13.7381 23.7006C13.9222 23.7006 14.272 23.6826 14.4469 23.6826Z" fill="#E5E7EB"/>
<path d="M16.3065 23.7821C16.3065 23.7278 16.2881 23.7278 16.2881 23.7821C16.2881 23.7821 16.2973 23.7821 16.3065 23.7821Z" fill="#E5E7EB"/>
<path d="M14.3365 23.9087C14.3733 23.9087 14.4469 23.8997 14.5574 23.8906L14.4837 23.7459C14.2996 23.7549 13.913 23.773 13.7197 23.7821L13.6368 24.0083C13.8946 23.963 14.1431 23.9178 14.3365 23.9087Z" fill="#E5E7EB"/>
<path d="M18.0463 24.4878C18.0831 24.3159 18.1476 24.0897 18.212 23.9268L18.2028 23.9178C18.0647 24.2887 17.899 24.7049 17.7149 25.0487C17.7793 25.0759 17.8346 25.0849 17.899 25.1392C17.9358 24.9763 18.0095 24.6687 18.0463 24.4878Z" fill="#E5E7EB"/>
<path d="M15.211 24.9492C15.0085 24.6144 14.8336 24.3883 14.6402 24.0535C14.4101 24.153 14.3549 24.2254 14.1247 24.2797C13.8209 24.3702 13.7013 24.4606 13.4343 24.6235C13.2226 25.302 12.9096 25.863 12.8912 26.5416C12.9648 26.5144 13.0385 26.4873 13.1121 26.4601C13.3975 26.5144 13.7105 26.5416 13.9682 26.2792C14.5022 26.4149 15.0637 25.7906 15.3767 25.2478C15.3123 25.1211 15.2662 25.0125 15.211 24.9492Z" fill="#E5E7EB"/>
<path d="M12.5782 23.3659C11.9614 23.384 9.19051 23.1759 10.7371 23.7278C11.4551 23.8092 12.523 23.7459 13.3791 23.7278L13.4803 23.393C13.1766 23.3749 12.8175 23.3659 12.5782 23.3659Z" fill="#E5E7EB"/>
<path d="M15.211 23.4383L14.7231 23.4202L14.8704 23.6645C16.0027 23.6011 16.1868 23.6554 14.898 23.7187L14.9717 23.8454C15.3491 23.8002 15.6068 23.7821 15.9843 23.7821C15.9843 23.7187 16.0119 23.5287 16.0211 23.4654C15.837 23.4564 15.3951 23.4473 15.211 23.4383Z" fill="#E5E7EB"/>
<path d="M18.2949 25.6911C18.2949 25.872 18.479 25.9897 18.6263 25.8449C18.6815 25.7363 18.6263 25.6187 18.7091 25.5192C18.746 25.474 18.8472 25.4197 18.8933 25.4016C18.9485 25.3473 18.9025 25.2478 18.8288 25.2297C18.7368 25.2206 18.6447 25.2206 18.5803 25.2749C18.8933 25.2297 18.6999 25.5644 18.5066 25.4649C18.5066 25.483 18.5066 25.4921 18.5066 25.5011C18.5434 25.5644 18.5895 25.6368 18.4606 25.6006C18.4606 25.6006 18.4422 25.5735 18.4422 25.5463C18.4422 25.5101 18.4974 25.5282 18.5066 25.5011V25.4649C18.4422 25.3021 18.2581 25.5644 18.2949 25.6911Z" fill="#E5E7EB"/>
<path d="M18.3041 25.103C18.3961 25.0397 18.5618 24.8859 18.6447 24.7954C18.7275 24.6959 18.5987 23.9992 18.5895 24.4697C18.5618 24.3792 18.5342 24.1892 18.433 24.1168C18.3225 24.4606 18.212 24.8768 18.1844 25.2297C18.2304 25.1844 18.2765 25.1211 18.3041 25.103Z" fill="#E5E7EB"/>
<path d="M30.0413 38.1495C27.8319 37.2538 26.2761 35.8605 26.1197 33.4991C26.0828 32.6939 26.1841 32.5129 25.7238 31.8434C25.42 31.4091 25.328 30.6039 25.3832 29.8168C26.1012 26.5325 25.9079 24.9673 23.9563 22.054C22.5663 19.9459 20.7712 18.6702 19.0773 16.9603C16.8128 14.5446 18.1752 10.2832 17.9727 7.28846C17.899 5.77753 17.8622 4.2485 16.9785 3.01804C15.883 1.46186 13.4435 1.28996 12.2007 2.7828C11.2526 3.74184 11.1421 5.71419 10.2583 6.85418C9.68759 7.57798 7.61632 8.7994 7.51506 9.01654C7.39539 9.19749 7.42301 9.39653 8.19628 9.54129C8.96035 9.68605 9.07082 9.81272 10.0742 9.3332C11.3262 8.7813 13.1397 7.3337 13.6184 9.15225C14.3272 14.246 8.65656 16.8245 6.87987 21.0135C4.27468 27.0663 8.86829 27.3106 7.70838 31.0653C7.0916 33.4991 5.57267 37.1814 2.45196 37.3262C0.914621 37.5162 0.214992 37.6067 0.104525 37.7243C-0.00594288 37.8419 -0.245289 38.1043 0.794948 38.0319C2.95827 37.7514 2.26785 39.0181 3.56584 38.8643C4.32991 38.7919 4.59688 38.6924 5.63711 38.7014C6.67735 38.7105 7.06399 38.9909 7.34936 38.819C8.00296 38.4752 5.81202 37.2267 6.19866 36.7653C6.33674 36.3943 7.11001 36.72 7.16525 36.521C6.18945 34.4039 8.38039 33.7705 8.83147 32.3682C8.92352 31.6805 8.7118 31.4544 9.26413 31.002C9.78886 30.5858 10.3412 31.1558 10.4332 31.2644C12.302 33.5081 15.7541 34.6481 18.5986 33.6167C19.0865 33.4267 19.5008 33.1915 19.8506 32.9201C20.8448 32.2415 21.1302 31.3367 22.1244 30.9568C22.8148 30.7668 23.4592 30.9658 23.9747 31.391C25.061 32.3048 24.0208 33.2548 25.2635 34.0691C25.8067 34.4491 26.2117 35.6976 25.9816 36.4667C25.7514 37.2448 24.1589 37.8871 23.1462 38.2219C22.1336 38.5567 21.9035 38.5928 21.9219 38.7648C21.9403 38.9367 22.373 38.9186 23.5697 38.6924C25.4845 38.3214 25.1254 39.0995 26.3406 38.9638C26.6904 38.9186 27.031 38.4752 27.6202 38.62C28.2001 38.7828 32.2598 39.38 30.0413 38.1495ZM17.7793 31.0563C15.1742 32.2144 11.8693 31.1377 10.4793 28.6858C11.1605 28.0525 12.035 27.2292 12.6978 26.5958C12.8267 26.5144 12.7991 26.1435 12.8451 26.044C13.0937 25.3292 13.3791 24.343 13.6736 23.6283C13.7013 23.574 13.9866 22.5245 14.0511 22.7235C14.4377 23.5559 14.898 24.2525 15.3767 25.0487C15.524 25.4468 15.5424 25.8268 16.0027 25.4559L15.9842 26.0349L15.9382 26.1797C15.9382 26.1797 15.8554 26.2882 15.8922 26.3878C15.9474 26.5325 16.288 27.582 16.2972 27.5911C16.5458 28.2787 17.0337 29.473 16.9969 29.9525C17.1073 30.1244 17.3467 30.3234 17.4019 30.5134C17.4019 30.5858 17.5584 30.631 17.5768 30.6853C17.5584 30.8391 17.7149 30.9206 17.8622 31.002C17.8346 31.0382 17.807 31.0472 17.7793 31.0563ZM19.8598 29.5634C19.3719 30.1153 18.7644 30.5768 18.0923 30.9115C17.9174 30.7758 17.6321 30.5406 17.54 30.3687C17.4756 30.242 17.2362 30.1425 17.2086 30.0158C17.1534 29.7263 17.0797 29.5544 16.9785 29.2196C16.4629 27.8173 16.0027 26.813 16.1039 25.4106C16.242 25.3382 16.3525 25.284 16.4814 25.2297C16.509 25.5011 16.4814 25.7454 16.4998 25.9625C16.6931 26.0892 16.8404 25.7363 16.9785 25.6097C17.1257 25.4287 17.2086 25.3654 17.3559 25.2387C17.3007 25.3744 17.2915 25.4106 17.2546 25.483C17.1902 25.5644 16.9232 25.9806 17.2178 25.9625C17.3467 25.9173 17.4479 25.7544 17.5492 25.673C17.6044 25.6187 17.853 25.4468 17.9635 25.3744C17.9727 25.3473 17.9727 25.3202 17.9819 25.293C17.9266 25.2478 17.8898 25.2297 17.8254 25.2478C17.899 25.1844 17.7793 25.1482 17.7333 25.1844C17.7241 25.1935 17.6044 25.3111 17.586 25.2478C17.7793 24.8406 18.0187 24.2525 18.2212 23.8092C18.4974 23.3207 18.0003 25.103 17.9819 25.293C18.0187 25.3202 17.9911 25.3563 17.9635 25.3744C17.5768 26.6863 17.5952 26.1797 18.6355 27.2111C18.7091 27.2563 19.2799 27.7358 19.3627 27.8354C19.6757 28.1882 20.0531 28.6677 20.5595 28.6315C20.3385 28.9663 20.1176 29.2739 19.8598 29.5634ZM16.1039 25.094C16.1684 24.5692 16.1684 23.8816 16.3157 23.4745C16.3617 23.8906 16.4077 24.4244 16.4537 24.904C16.3341 24.9583 16.2236 25.0216 16.1039 25.094ZM20.6239 28.4687C20.3017 28.4596 20.0716 28.4415 19.8598 28.1882C19.3167 27.6816 19.2707 27.6182 18.6079 26.9849C18.212 26.6139 18.2304 26.623 17.9635 26.3516C17.9358 26.3335 17.9082 26.2792 17.899 26.2339C17.8806 26.0078 17.9727 25.664 18.0371 25.4468C18.166 24.5692 18.5158 23.6554 18.7551 22.7416C18.7736 22.3254 18.5618 22.5426 18.5066 22.814C18.166 23.5197 17.7701 24.2797 17.4479 25.0216C17.3927 25.0125 17.3467 24.9583 17.3375 24.904C17.1534 24.714 17.1257 25.0668 17.0521 25.1573C16.9785 25.2387 16.8312 25.4287 16.7391 25.5011C16.7115 25.3925 16.7299 25.3835 16.6931 25.1392C16.8496 25.0849 16.96 25.0578 16.8588 24.8678C17.0613 24.9763 17.2178 24.6235 17.4019 24.8406C17.5768 24.4516 17.7517 24.0535 18.0003 23.6464L17.9911 23.6373C17.9174 23.3568 17.2362 22.9226 17.0613 22.814C17.1994 23.004 16.8036 22.8592 16.7207 22.8954C16.6286 22.9045 16.7207 22.9678 16.6931 22.9768C16.6747 22.9768 16.6378 23.0221 16.601 23.0583C16.6378 23.4835 16.7023 24.2073 16.7299 24.6416C16.7023 24.6325 16.6839 24.6325 16.6563 24.6416C16.6102 24.1983 16.4445 22.7235 16.4721 22.3073C16.2236 21.9454 16.2328 22.7416 16.2144 22.814C16.1039 23.384 16.0671 24.5421 16.0487 25.1302C15.9658 25.1754 15.929 25.2206 15.8738 25.2297C15.8554 25.2206 15.7449 25.1844 15.7265 25.1844C15.7173 25.1754 15.6344 25.0668 15.6344 25.0668C15.1742 24.343 14.5206 23.194 14.1431 22.5064C13.9958 22.1535 13.9314 22.4611 13.8209 22.6873C13.4895 23.574 13.1765 24.7411 12.8727 25.6459C12.7439 25.9716 12.7531 26.2611 12.4309 26.623C11.6668 27.4554 11.1513 27.9077 10.4425 28.5953C8.53689 25.4559 10.5437 21.0226 14.1339 20.2897C17.0705 19.5297 20.3109 21.3935 21.0842 24.2887C20.7896 24.4064 20.5318 24.6687 20.182 24.8316C19.9427 24.9311 19.9243 24.9311 19.7309 24.9854C19.556 25.0849 19.3535 25.2749 19.1602 25.3202C19.151 25.2749 19.105 25.2478 19.1142 25.2116C19.1142 25.2025 19.1234 25.1935 19.105 25.1482C19.0313 25.0668 18.9853 24.8859 18.8472 24.8949C18.7551 24.9221 18.7367 25.0397 18.6355 25.0578C18.5066 25.1211 18.4514 25.1211 18.3685 25.2749C18.3225 25.3563 18.3593 25.3563 18.3593 25.3563C18.479 25.1302 19.0681 24.9944 19.0221 25.4287C19.0221 25.5192 18.9853 25.483 18.8656 25.5735C18.7275 25.6821 18.7644 25.8811 18.6263 25.9625C18.4329 26.0259 18.3225 25.9625 18.2857 25.7906C18.2765 25.8087 18.3041 25.9806 18.3409 25.9987C18.3961 26.053 18.5342 26.1616 18.6263 26.1254C18.6907 26.1254 18.7183 26.0892 18.7644 26.1525C18.7367 26.2792 18.8012 26.442 18.9116 26.5416C18.9485 26.5958 19.1234 26.9306 19.1234 26.9306C19.1418 26.9849 19.8966 28.1701 20.1268 28.2877C19.8322 28.0434 19.0865 26.7858 19.0497 26.6139C18.9853 26.4692 19.105 26.1073 18.8932 26.0711C18.8748 26.0711 18.838 26.062 18.838 26.0349C18.8564 26.0168 18.884 25.9354 18.8748 25.8992C18.9024 25.7906 19.2891 25.5825 19.1878 25.3744C19.3535 25.3473 19.7125 25.0216 19.8874 24.9854C20.2557 24.9311 20.8264 24.4425 21.1026 24.2887C21.4708 25.6459 21.2867 27.2563 20.6239 28.4687Z" fill="#E5E7EB"/>
<path d="M15.5148 24.0264C15.3767 23.9902 15.211 23.9811 15.0637 23.9992C15.2386 24.3249 15.4319 24.6416 15.662 24.9673C15.7541 24.8949 15.8554 24.8225 15.9566 24.7502L15.9658 24.0716C15.8554 24.0806 15.7173 24.0625 15.5148 24.0264Z" fill="#E5E7EB"/>
<path d="M12.8359 25.0578C12.4953 25.3563 12.6702 25.5282 12.2376 25.7906C12.0811 26.053 12.2652 26.0259 11.943 26.1525C11.8509 26.2792 11.7036 26.4239 11.5471 26.5144C11.4367 26.5687 11.2065 26.7949 11.4459 26.8401C11.6392 26.813 11.9614 26.7949 12.1823 26.7406C12.6702 26.1525 12.7715 25.5735 13.0108 24.9221C12.974 24.9673 12.9096 25.0125 12.8359 25.0578Z" fill="#E5E7EB"/>
<path d="M16.2972 24.6325L16.3525 24.6235L16.3433 24.4425C16.3156 24.4606 16.2696 24.4787 16.2328 24.4606C16.2328 24.4968 16.2236 24.5963 16.2236 24.6325C16.2328 24.6416 16.2788 24.6325 16.2972 24.6325Z" fill="#E5E7EB"/>
<path d="M19.51 24.9402C19.7954 24.6506 20.1268 24.5873 20.3385 24.2344C20.403 24.0535 20.5134 23.954 20.5687 23.8635C20.3385 24.0083 20.3477 24.2073 20.1176 24.4063C19.8414 24.5602 19.5745 24.7863 19.3627 24.9854C19.2983 25.094 19.2615 25.2568 19.1326 25.3111C19.3811 25.293 19.3259 25.0397 19.51 24.9402Z" fill="#E5E7EB"/>
<path d="M12.8083 23.8273C11.9982 23.9268 10.6818 23.9449 10.1571 24.153C10.6174 24.7773 12.3388 24.1802 13.2778 24.0716L13.3606 23.8002C13.1305 23.8092 12.9924 23.8183 12.8083 23.8273Z" fill="#E5E7EB"/>
</svg>
